<svg xmlns="http://www.w3.org/2000/svg" style="display: none;">
  
    <symbol id="icon-alarm" viewBox="0 0 512 512">
      <path d="m256 64c-124 0-224 100-224 224 0 124 100 224 224 224 124 0 224-100 224-224 0-124-100-224-224-224z m0 404c-99 0-180-81-180-180 0-99 81-180 180-180 99 0 180 81 180 180 0 99-81 180-180 180z m211-324c8-14 13-31 13-48 0-53-43-96-96-96-31 0-58 15-76 37 66 14 123 53 159 107z m-263-107c-18-22-45-37-76-37-53 0-96 43-96 96 0 17 5 34 13 48 36-54 93-93 159-107z m52 251l0-128-32 0 0 160 128 0 0-32z"/>
    </symbol>
  
    <symbol id="icon-bubble" viewBox="0 0 512 512">
      <path d="m256 112c4 0 8 4 8 8 0 4-4 8-8 8-85 0-160 45-160 96 0 4-4 8-8 8-4 0-8-4-8-8 0-61 81-112 176-112z m0-80c-141 0-256 86-256 192 0 66 44 124 112 159 0 0 0 1 0 1 0 29-21 60-31 76 0 0 0 0 0 0-1 2-1 3-1 6 0 8 6 14 14 14 2 0 5 0 5 0 50-8 97-54 108-68 16 3 32 4 49 4 141 0 256-86 256-192 0-106-115-192-256-192z m0 352c-15 0-30-1-45-3-1-1-3-1-4-1-10 0-19 5-25 12-7 8-26 27-49 41 6-15 11-31 11-47 0-1 0-2 0-3 0-12-7-23-17-29-60-30-95-79-95-130 0-88 100-160 224-160 123 0 224 72 224 160 0 88-100 160-224 160z"/>
    </symbol>
  
    <symbol id="icon-bulb" viewBox="0 0 512 512">
      <path d="m256 0c-97 0-176 79-176 176 0 64 59 133 80 193 33 89 29 143 96 143 68 0 63-53 96-143 21-60 80-129 80-193 0-97-79-176-176-176z m41 435l-79 10c-3-8-6-18-9-31 0 0-1 0-1 0l99-12c-1 4-2 9-4 14-2 7-4 13-6 19z m-93-36c-3-10-6-20-10-31l124 0c-2 6-4 12-5 17z m52 81c-16 0-24-2-32-20l68-8c-10 26-17 28-36 28z m75-144l-150 0c-8-17-17-35-27-51-20-38-42-76-42-109 0-79 65-144 144-144 79 0 144 65 144 144 0 32-22 71-42 109-10 17-19 34-27 51z m-75-256c4 0 8 4 8 8 0 4-4 8-8 8-44 0-80 36-80 80 0 4-4 8-8 8-4 0-8-4-8-8 0-53 43-96 96-96z"/>
    </symbol>
  
    <symbol id="icon-calendar" viewBox="0 0 512 512">
      <path d="m469 48l-69 0 0-32c0-9-7-16-16-16-9 0-16 7-16 16l0 32-96 0 0-32c0-9-7-16-16-16-9 0-16 7-16 16l0 32-96 0 0-32c0-9-7-16-16-16-9 0-16 7-16 16l0 32-69 0c-24 0-43 19-43 43l0 378c0 24 19 43 43 43l426 0c24 0 43-19 43-43l0-378c0-24-19-43-43-43z m11 421c0 6-5 11-11 11l-426 0c-6 0-11-5-11-11l0-378c0-6 5-11 11-11l69 0 0 32c0 9 7 16 16 16 9 0 16-7 16-16l0-32 96 0 0 32c0 9 7 16 16 16 9 0 16-7 16-16l0-32 96 0 0 32c0 9 7 16 16 16 9 0 16-7 16-16l0-32 69 0c6 0 11 5 11 11z m-368-277l64 0 0 48-64 0z m0 80l64 0 0 48-64 0z m0 80l64 0 0 48-64 0z m112 0l64 0 0 48-64 0z m0-80l64 0 0 48-64 0z m0-80l64 0 0 48-64 0z m112 160l64 0 0 48-64 0z m0-80l64 0 0 48-64 0z m0-80l64 0 0 48-64 0z"/>
    </symbol>
  
    <symbol id="icon-camera" viewBox="0 0 512 512">
      <path d="m256 160c-71 0-128 57-128 128 0 71 57 128 128 128 71 0 128-57 128-128 0-71-57-128-128-128z m73 190c-35 41-95 45-135 11-41-35-45-95-11-135 35-41 95-45 135-11 41 35 45 95 11 135z m-73-126c4 0 8 4 8 8 0 4-4 8-8 8-27 0-48 22-48 48l0 0c0 4-4 8-8 8-4 0-8-4-8-8l0 0c0-35 29-64 64-64z m216-79l-69-12-22-55c-8-18-25-30-45-30l-160 0c-20 0-37 12-45 30l-22 55-69 12c-23 4-40 23-40 47l0 240c0 26 22 48 48 48l416 0c26 0 48-22 48-48l0-240c0-24-17-43-40-47z m8 287c0 9-7 16-16 16l-416 0c-9 0-16-7-16-16l0-240c0-8 6-14 13-16l87-14 29-72c3-6 8-10 15-10l160 0c7 0 12 4 15 10l29 72 87 14c7 2 13 8 13 16z"/>
    </symbol>
  
    <symbol id="icon-checkbox-checked" viewBox="0 0 512 512">
      <path d="m448 0l-384 0c-35 0-64 29-64 64l0 384c0 35 29 64 64 64l384 0c35 0 64-29 64-64l0-384c0-35-29-64-64-64z m-224 397l-119-118 46-46 73 74 153-154 46 46z"/>
    </symbol>
  
    <symbol id="icon-checkbox-unchecked" viewBox="0 0 512 512">
      <path d="m448 0l-384 0c-35 0-64 29-64 64l0 384c0 35 29 64 64 64l384 0c35 0 64-29 64-64l0-384c0-35-29-64-64-64z m0 448l-384 0 0-384 384 0z"/>
    </symbol>
  
    <symbol id="icon-checkmark" viewBox="0 0 512 512">
      <path d="m432 64l-240 240-112-112-80 80 192 192 320-320z"/>
    </symbol>
  
    <symbol id="icon-chevron-down" viewBox="0 0 512 512">
      <path d="m481 231l-212 212c-7 7-19 7-26 0l-212-212c-7-7-7-19 0-26l48-47c7-7 18-7 25 0l152 151 152-151c7-7 18-7 25 0l48 47c7 7 7 19 0 26z"/>
    </symbol>
  
    <symbol id="icon-chevron-left" viewBox="0 0 512 512">
      <path d="m399 86l-152 152 152 151c7 8 7 19 0 26l-48 48c-7 7-18 7-26 0l-212-212c-7-8-7-19 0-26l212-212c8-7 19-7 26 0l48 47c7 7 7 19 0 26z"/>
    </symbol>
  
    <symbol id="icon-chevron-right" viewBox="0 0 512 512">
      <path d="m396 251l-212 212c-7 7-18 7-25 0l-48-48c-7-7-7-18 0-26l152-151-152-152c-7-7-7-19 0-26l48-47c7-7 18-7 25 0l212 212c7 7 7 18 0 26z"/>
    </symbol>
  
    <symbol id="icon-close" viewBox="0 0 512 512">
      <path d="m427 378c0 7-3 14-8 19l-39 39c-5 5-12 8-19 8-8 0-15-3-20-8l-84-84-84 84c-5 5-12 8-19 8-7 0-15-3-20-8l-39-39c-5-5-8-12-8-19 0-7 3-15 8-20l84-84-84-84c-5-5-8-12-8-19 0-7 3-14 8-20l39-38c5-6 13-8 20-8 7 0 14 2 19 8l84 84 84-84c5-6 12-8 20-8 7 0 14 2 19 8l39 38c5 6 8 13 8 20 0 7-3 14-8 19l-84 84 84 84c5 5 8 13 8 20z"/>
    </symbol>
  
    <symbol id="icon-close-circle" viewBox="0 0 512 512">
      <path d="m256 464c-115 0-208-93-208-208 0-115 93-208 208-208 115 0 208 93 208 208 0 115-93 208-208 208z m95-269c4-4 4-10 0-14l-21-21c-4-4-10-4-14 0l-60 60-60-60c-4-4-11-4-15 0l-21 21c-4 4-4 10 0 14l60 61-60 60c-4 4-4 10 0 14l21 21c4 4 11 4 15 0l60-60 60 60c4 4 10 4 14 0l21-21c4-4 4-10 0-14l-60-60z"/>
    </symbol>
  
    <symbol id="icon-cogs" viewBox="0 0 512 512">
      <path d="m182 361l21-29-23-23-29 21c-5-3-11-5-17-7l-6-35-32 0-6 35c-6 2-12 4-17 7l-29-21-23 23 21 29c-3 5-5 11-7 17l-35 6 0 32 35 6c2 6 4 12 7 17l-20 29 22 23 29-21c5 3 11 5 17 7l6 35 32 0 6-35c6-2 12-4 17-7l29 21 23-23-21-29c3-5 5-11 7-17l35-6 0-32-35-6c-2-6-4-12-7-17z m-70 71c-18 0-32-14-32-32 0-18 14-32 32-32 18 0 32 14 32 32 0 18-14 32-32 32z m400-240l0-32-34-6c0-4-1-8-2-12l29-19-13-29-33 7c-2-3-4-7-7-10l20-28-23-23-28 20c-3-3-7-5-10-7l7-33-29-13-19 29c-4-1-8-2-12-2l-6-34-32 0-6 34c-4 0-8 1-12 2l-19-29-29 13 7 33c-3 2-7 4-10 7l-28-20-23 23 20 28c-3 3-5 7-7 10l-33-7-13 29 29 19c-1 4-2 8-2 12l-34 6 0 32 34 6c0 4 1 8 2 12l-29 19 13 29 33-7c2 3 4 7 7 10l-20 28 23 23 28-20c3 3 7 5 10 7l-7 33 29 13 19-29c4 1 8 2 12 2l6 34 32 0 6-34c4 0 8-1 12-2l19 29 29-13-7-33c3-2 7-4 10-7l28 20 23-23-20-28c3-3 5-7 7-10l33 7 13-29-29-19c1-4 2-8 2-12z m-176 54c-38 0-70-32-70-70 0-38 32-70 70-70 38 0 70 32 70 70 0 38-32 70-70 70z"/>
    </symbol>
  
    <symbol id="icon-cross" viewBox="0 0 512 512">
      <path d="m427 378c0 7-3 14-8 19l-39 39c-5 5-12 8-19 8-8 0-15-3-20-8l-84-84-84 84c-5 5-12 8-19 8-7 0-15-3-20-8l-39-39c-5-5-8-12-8-19 0-7 3-15 8-20l84-84-84-84c-5-5-8-12-8-19 0-7 3-14 8-20l39-38c5-6 13-8 20-8 7 0 14 2 19 8l84 84 84-84c5-6 12-8 20-8 7 0 14 2 19 8l39 38c5 6 8 13 8 20 0 7-3 14-8 19l-84 84 84 84c5 5 8 13 8 20z"/>
    </symbol>
  
    <symbol id="icon-cross-circle" viewBox="0 0 512 512">
      <path d="m256 464c-115 0-208-93-208-208 0-115 93-208 208-208 115 0 208 93 208 208 0 115-93 208-208 208z m95-269c4-4 4-10 0-14l-21-21c-4-4-10-4-14 0l-60 60-60-60c-4-4-11-4-15 0l-21 21c-4 4-4 10 0 14l60 61-60 60c-4 4-4 10 0 14l21 21c4 4 11 4 15 0l60-60 60 60c4 4 10 4 14 0l21-21c4-4 4-10 0-14l-60-60z"/>
    </symbol>
  
    <symbol id="icon-css" viewBox="0 0 512 512">
      <path d="m1 350l0-326c0-13 10-24 23-24l462 0c14 0 24 11 24 24l0 315c-14-9-31-13-50-13-27 0-47 6-61 19-14 13-21 28-21 47 0 21 7 36 22 46 8 6 23 12 45 16l23 5c13 3 23 7 29 10 6 4 9 10 9 17 0 12-6 20-19 24l0 0-47 0c-6-2-11-5-15-9-4-5-6-12-8-22l-42 0c0 12 2 23 7 32l-36 0c4-9 7-18 7-28 0-19-7-33-19-43-8-7-20-12-36-16l-37-8c-14-3-23-6-28-9-6-4-10-9-10-17 0-8 4-14 10-19 8-4 16-6 28-6 10 0 19 2 26 5 10 6 16 15 17 28l42 0c0-22-9-40-24-51-16-12-35-18-57-18-27 0-47 6-61 19-14 12-21 28-21 47 0 20 7 36 22 46 8 5 24 11 45 16l23 5c13 3 22 6 29 10 6 4 9 9 9 16 0 12-6 20-19 25l-48 0c-6-3-11-6-14-10-4-5-7-12-8-22l-43 0c0 12 2 22 7 32l-45 0c7-12 12-24 14-39l-44 0c-3 11-6 20-11 25-5 7-13 11-22 14l-26 0c-9-3-18-8-24-17-10-11-15-29-15-53 0-24 5-42 14-55 10-13 22-19 38-19 16 0 28 4 36 13 5 6 9 13 11 23l45 0c-1-13-6-26-15-39-16-24-42-36-78-36-25 0-46 8-62 23l-1-2z m509 78l0-33-11 0c0-13-6-22-16-27-7-4-16-6-26-6-11 0-20 3-27 7-7 5-10 11-10 20 0 7 3 13 10 16 5 3 14 6 28 9l37 9c6 1 12 3 17 5l-1 0z"/>
    </symbol>
  
    <symbol id="icon-data" viewBox="0 0 512 512">
      <path d="m256 0c-108 0-224 33-224 104l0 304c0 71 116 104 224 104 108 0 224-33 224-104l0-304c0-71-116-104-224-104z m192 408c0 40-86 72-192 72-106 0-192-32-192-72l0-60c33 34 113 52 192 52 79 0 159-18 192-52z m0-96l0 0c0 0 0 0 0 0 0 40-86 72-192 72-106 0-192-32-192-72 0 0 0 0 0 0l0 0 0-60c33 34 113 52 192 52 79 0 159-18 192-52z m0-96l0 0c0 0 0 0 0 0 0 40-86 72-192 72-106 0-192-32-192-72 0 0 0 0 0 0l0 0 0-55c42 32 119 47 192 47 73 0 150-15 192-47z m-192-40c-106 0-192-32-192-72 0-40 86-72 192-72 106 0 192 32 192 72 0 40-86 72-192 72z m128 240c0-9 7-16 16-16 9 0 16 7 16 16 0 9-7 16-16 16-9 0-16-7-16-16z m0-96c0-9 7-16 16-16 9 0 16 7 16 16 0 9-7 16-16 16-9 0-16-7-16-16z m0-96c0-9 7-16 16-16 9 0 16 7 16 16 0 9-7 16-16 16-9 0-16-7-16-16z"/>
    </symbol>
  
    <symbol id="icon-diamond" viewBox="0 0 512 512">
      <path d="m503 155l-82-81c-6-6-14-10-22-10l-286 0c-8 0-16 4-22 10l-82 81c-6 6-9 14-9 23 0 7 3 15 8 21l224 238c6 7 15 11 24 11 9 0 18-4 24-11l224-238c5-6 8-14 8-22 0-8-3-16-9-22z m-211 21l-72 0 36-29z m-23-40l43-36 33 32-41 34z m-61 30l-41-34 33-32 44 36z m88 26l-40 199-40-199z m16 0l79 0-118 196z m4-16l40-33 33 33z m15-80l57 0-31 26z m-75 30l-36-30 71 0z m-101-4l-31-26 57 0z m1 21l40 33-73 0z m44 49l39 196-118-196z m3 168l-157-168 57 0z m206-168l57 0-157 168z m2-16l-43-43 37-31 74 74z m-304-74l37 31-43 43-69 0z"/>
    </symbol>
  
    <symbol id="icon-dropbox" viewBox="0 0 512 512">
      <path d="m128 39l-128 81 128 82 128-82z m256 0l-128 81 128 82 128-82z m-384 244l128 82 128-82-128-81z m384-81l-128 81 128 82 128-82z m-256 190l128 81 128-81-128-82z"/>
    </symbol>
  
    <symbol id="icon-edit" viewBox="0 0 512 512">
      <path d="m254 338l33-33-44-43-33 33 0 16 28 0 0 27z m125-205c-2-3-6-3-9 0l-100 100c-3 2-3 7 0 9 2 3 7 3 9 0l100-100c3-3 3-7 0-9z m23 169l0 55c0 45-37 82-82 82l-238 0c-45 0-82-37-82-82l0-238c0-46 37-82 82-82l238 0c11 0 23 2 33 7 3 1 5 3 6 6 0 3-1 6-3 9l-14 14c-3 2-6 3-9 2-4-1-9-2-13-2l-238 0c-25 0-45 21-45 46l0 238c0 25 20 45 45 45l238 0c25 0 46-20 46-45l0-36c0-3 1-5 2-7l19-18c2-3 6-3 10-2 3 1 5 5 5 8z m-27-211l82 83-192 192-82 0 0-83z m127 38l-27 26-82-82 26-26c11-11 29-11 39 0l44 43c10 11 10 29 0 39z"/>
    </symbol>
  
    <symbol id="icon-eye" viewBox="0 0 512 512">
      <path d="m511 252c0 0 0-1 0-2 0 0 0 0 0 0 0-1 0-1-1-1-46-89-147-153-254-153-106 0-207 64-254 152 0 1 0 1 0 2 0 0 0 0 0 0-1 1-1 2-1 2 0 2 0 3 0 4 0 1 0 2 0 3 0 1 0 2 1 3 0 0 0 0 0 0 0 1 0 1 0 1 47 89 148 153 254 153 107 0 208-64 254-153 1 0 1 0 1-1 0 0 0 0 0 0 0-1 0-2 0-2 1-2 1-3 1-4 0-1 0-2-1-4z m-255 132c-89 0-177-51-221-128 44-77 132-128 221-128 90 0 178 51 222 128-44 77-132 128-222 128z m0-192c5 0 8 4 8 8 0 4-3 8-8 8l0 0c-26 0-48 22-48 48 0 4-3 8-8 8-4 0-8-4-8-8 0-35 29-64 64-64 0 0 0 0 0 0z m0-48c-62 0-112 50-112 112 0 62 50 112 112 112 62 0 112-50 112-112 0-62-50-112-112-112z m0 208c-53 0-96-43-96-96 0-53 43-96 96-96 53 0 96 43 96 96 0 53-43 96-96 96z"/>
    </symbol>
  
    <symbol id="icon-git" viewBox="0 0 512 512">
      <path d="m502 233l-223-223c-13-13-34-13-47 0l-52 52 39 39c7-3 14-5 21-5 27 0 48 21 48 48 0 7-2 14-5 21l64 64c7-3 14-5 21-5 26 0 48 21 48 48 0 26-22 48-48 48-27 0-48-22-48-48 0-7 2-14 5-21l-64-64c-2 1-3 2-5 2l0 134c19 6 32 24 32 45 0 27-21 48-48 48-27 0-48-21-48-48 0-21 13-39 32-45l0-134c-19-6-32-24-32-45 0-7 2-14 5-21l-39-39-148 148c-13 13-13 34 0 47l223 223c13 13 34 13 47 0l222-222c13-13 13-34 0-47z"/>
    </symbol>
  
    <symbol id="icon-github" viewBox="0 0 512 512">
      <path d="m256 6c-141 0-256 115-256 256 0 113 73 209 175 243 13 3 18-5 18-12 0-6-1-26-1-48-71 16-86-30-86-30-12-30-28-37-28-37-24-16 1-16 1-16 26 2 40 26 40 26 22 40 59 28 74 22 2-17 9-28 16-35-57-6-116-28-116-126 0-28 10-51 26-69-3-6-11-32 3-68 0 0 21-6 70 27 20-6 42-9 64-9 22 0 44 3 64 9 49-33 70-27 70-27 14 36 6 62 3 68 16 18 26 41 26 69 0 98-60 120-117 126 10 8 18 24 18 48 0 34-1 61-1 70 0 7 5 15 18 12 102-34 175-130 175-243 0-141-115-256-256-256z"/>
    </symbol>
  
    <symbol id="icon-heart" viewBox="0 0 512 512">
      <path d="m467 84c-58-57-151-58-211-4-60-54-153-53-211 4-60 60-60 156 0 215 17 17 177 175 177 175 19 19 49 19 68 0 0 0 175-173 177-175 60-59 60-155 0-215z m-23 192l-177 175c-6 7-16 7-22 0l-177-175c-47-46-47-122 0-169 45-45 118-47 166-4l22 20 22-20c48-43 121-41 166 4 47 47 47 123 0 169z m-296-156c4 0 8 4 8 8 0 4-4 8-8 8l0 0c-29 0-52 23-52 52l0 0c0 4-4 8-8 8-4 0-8-4-8-8 0-38 30-68 68-68 0 0 0 0 0 0z"/>
    </symbol>
  
    <symbol id="icon-home" viewBox="0 0 512 512">
      <path d="m512 295l-256-199-256 199 0-81 256-199 256 199z m-64-7l0 192-128 0 0-128-128 0 0 128-128 0 0-192 192-144z"/>
    </symbol>
  
    <symbol id="icon-html5" viewBox="0 0 512 512">
      <path d="m32 0l448 0-41 460-183 52-183-52-41-460z m150 208l-5-58 215 0 5-56-282 0 15 171 195 0-7 73-62 17-63-17-4-45-56 0 7 89 116 31 115-31 16-174-205 0z"/>
    </symbol>
  
    <symbol id="icon-image" viewBox="0 0 512 512">
      <path d="m480 64c0 0 0 0 0 0l0 384c0 0 0 0 0 0l-448 0c0 0 0 0 0 0l0-384c0 0 0 0 0 0z m0-32l-448 0c-18 0-32 14-32 32l0 384c0 18 14 32 32 32l448 0c18 0 32-14 32-32l0-384c0-18-14-32-32-32z m-64 112c0 27-21 48-48 48-27 0-48-21-48-48 0-27 21-48 48-48 27 0 48 21 48 48z m32 272l-384 0 0-64 112-192 128 160 32 0 112-96z"/>
    </symbol>
  
    <symbol id="icon-javascript" viewBox="0 0 512 512">
      <path d="m0 0l512 0 0 512-512 0z m470 390c-4-23-19-43-64-61-16-8-33-13-38-25-2-7-3-11-1-15 3-14 19-18 32-14 8 3 16 9 21 19 22-14 22-14 37-24-5-9-8-12-12-16-14-15-32-23-61-22l-15 2c-14 3-28 11-36 21-25 28-18 76 12 95 29 22 72 27 77 47 5 25-18 33-42 30-17-3-27-12-37-28l-39 22c4 11 9 15 17 24 37 38 130 36 147-21 0-2 5-15 1-36l1 2z m-192-155l-48 0c0 42 0 83 0 124 0 26 2 51-3 58-7 15-25 13-33 10-9-4-13-10-18-18-1-2-2-4-2-4l-39 24c6 13 16 25 28 32 18 11 43 15 68 9 17-5 31-15 39-30 11-20 8-44 8-72 1-43 0-87 0-131l0-2z"/>
    </symbol>
  
    <symbol id="icon-key" viewBox="0 0 512 512">
      <path d="m352 0c-88 0-160 72-160 160 0 21 4 40 11 58l-194 194c-6 6-9 11-9 20l0 48c0 17 15 32 32 32l48 0c9 0 14-3 20-9l23-23 37 0c18 0 32-14 32-32l0-32 32 0c18 0 32-14 32-32l0-38 38-37c18 7 37 11 58 11 88 0 160-72 160-160 0-88-72-160-160-160z m0 288c-24 0-46-7-65-18l-5 5-49 49c-6 6-9 14-9 22l0 38-32 0c-18 0-32 14-32 32l0 32-37 0c-9 0-17 3-23 9l-23 23-45 0 0-46 187-186c0 0 0 0 0 0l23-23c-11-19-18-41-18-65 0-71 57-128 128-128 71 0 128 57 128 128 0 71-57 128-128 128z m93-156c-18-25-40-47-65-65-4-3-9-4-14-2-22 8-37 23-45 45-1 2-1 4-1 5 0 3 1 7 3 9 18 25 40 47 65 65 4 3 9 4 14 2 22-8 37-23 45-45 1-2 1-3 1-5 0-3-1-7-3-9z m-48 44c-24-17-44-37-61-61 6-17 18-29 35-35 24 17 44 38 61 61-6 17-18 29-35 35z"/>
    </symbol>
  
    <symbol id="icon-lab" viewBox="0 0 512 512">
      <path d="m331 60c-8-8-18-12-28-12-11 0-21 4-29 12l-22 22c-8 8-12 18-12 29 0 7 2 14 6 21l-217 87c-15 6-25 19-28 35-3 15 2 31 13 43l204 201c8 9 20 14 32 14 1 0 1 0 2 0 3 0 6 0 9-1 16-3 29-14 35-29l86-214c6 4 14 6 22 6 10 0 20-4 28-11l22-23c8-8 12-18 12-28 0-11-4-21-12-29z m-64 410c-2 5-7 9-12 10-1 0-3 0-4 0-4 0-8-2-11-5l-203-201c-4-4-6-9-5-14 1-6 5-10 10-12l99-40c67 22 134 1 201 72z m165-253l-23 23c-3 3-8 3-11 0l-28-28-23 57 2-5c-49-48-97-54-142-59-14-2-28-4-41-7l136-54-28-28c-3-3-3-8 0-11l23-23c3-3 8-3 11 0l124 124c3 3 3 8 0 11z m-168 119c22 0 40-18 40-40 0-22-18-40-40-40-22 0-40 18-40 40 0 22 18 40 40 40z m0-64c13 0 24 11 24 24 0 13-11 24-24 24-13 0-24-11-24-24 0-13 11-24 24-24z m208-272c-22 0-40 18-40 40 0 22 18 40 40 40 22 0 40-18 40-40 0-22-18-40-40-40z m0 64c-13 0-24-11-24-24 0-13 11-24 24-24 13 0 24 11 24 24 0 13-11 24-24 24z m-344 208c0 18 14 32 32 32 18 0 32-14 32-32 0-18-14-32-32-32-18 0-32 14-32 32z m32-16c9 0 16 7 16 16 0 9-7 16-16 16-9 0-16-7-16-16 0-9 7-16 16-16z m32 112c0-9 7-16 16-16 9 0 16 7 16 16 0 9-7 16-16 16-9 0-16-7-16-16z m256-240c0-9 7-16 16-16 9 0 16 7 16 16 0 9-7 16-16 16-9 0-16-7-16-16z"/>
    </symbol>
  
    <symbol id="icon-laravel" viewBox="0 0 512 512">
      <path d="m138 283l-137-228c7-31 34-55 67-55 0 0 0 0 0 0l376 0c28 0 52 17 63 42-11-11-18-8-26-7-10 1-122 20-134 23-14 2-22 7-14 18l97 137-292 70z m-20 46l-118 31 0 84c0 38 31 68 68 68l154 0c-20-33-75-131-103-183l-1 0z m219 183l107 0c36 0 65-28 68-63z m-242-227l-95-163 0 194 93-22c7-2 5-2 2-9z m404-218c-6-8-10-7-14-6-4 2-102 19-108 20-6 1-4 4-1 7l85 118 51-13 0-109c-3-4-8-10-12-15l-1-2z m-55 177l-285 75c0 0 87 151 94 161 7 10 11 9 16 7 4-2 166-57 243-83l0-81-55-75c-3-5-5-6-13-4z m41-7l27 36 0-47-29 8z"/>
    </symbol>
  
    <symbol id="icon-like" viewBox="0 0 512 512">
      <path d="m467 168c-20-6-67-6-136-7 3-15 4-29 4-53 0-57-42-108-79-108-26 0-48 21-48 48 0 32-10 88-64 116-4 2-15 7-17 8l1 1c-8-7-20-13-32-13l-48 0c-26 0-48 22-48 48l0 256c0 26 22 48 48 48l48 0c19 0 35-12 43-28 0 0 0 1 0 1 1 0 3 0 4 1 1 0 1 0 1 0 9 2 27 6 65 15 8 2 51 11 95 11l88 0c27 0 46-10 57-31 0 0 4-7 7-17 2-7 3-18 0-28 18-12 23-30 27-42 6-19 4-33 0-43 9-9 18-23 21-44 2-14 0-27-6-38 9-11 13-23 14-35l0-4c0-2 0-3 0-8 0-20-14-45-45-54z m-355 296c0 9-7 16-16 16l-48 0c-9 0-16-7-16-16l0-256c0-9 7-16 16-16l48 0c9 0 16 7 16 16z m368-231c-1 7-4 23-32 23-24 0-32 0-32 0-4 0-8 4-8 8 0 4 4 8 8 8 0 0 7 0 31 0 24 0 27 20 26 30-2 11-8 34-35 34-27 0-38 0-38 0-4 0-8 4-8 8 0 4 4 8 8 8 0 0 19 0 32 0 27 0 24 21 20 33-5 16-8 31-42 31-12 0-26 0-26 0-5 0-8 4-8 8 0 4 3 8 8 8 0 0 11 0 25 0 17 0 18 17 16 22-2 7-4 12-4 12-5 9-13 14-29 14l-88 0c-44 0-87-10-88-10-67-16-70-17-74-18 0 0-14-2-14-14l0-221c0-7 5-14 13-17 1 0 2 0 3-1 73-30 95-97 96-151 0-8 6-16 16-16 17 0 47 34 47 76 0 38-2 44-15 84 160 0 159 2 173 6 17 5 19 20 19 24 0 6 0 5 0 11z m-408 183c-13 0-24 11-24 24 0 13 11 24 24 24 13 0 24-11 24-24 0-13-11-24-24-24z m0 32c-4 0-8-4-8-8 0-4 4-8 8-8 4 0 8 4 8 8 0 4-4 8-8 8z"/>
    </symbol>
  
    <symbol id="icon-megaphone" viewBox="0 0 512 512">
      <path d="m400 0c-33 0-59 23-77 57l-1 0c-26 53-66 87-110 87l-148 0c-36 0-64 35-64 80 0 45 28 80 64 80 18 0 32 14 32 32l0 144c0 18 14 32 32 32l64 0c18 0 32-14 32-32l0-16c0-16-16-23-16-32l0-112c0 0 0-1 0-1 0-2 1-4 2-6 0-1 1-1 1-2 1-2 3-3 5-4 0 0 0-1 0-1 0 0 0 0 0 0 1 0 3-1 4-1 41 4 77 37 102 86l1 0c18 35 44 57 77 57 74 0 112-113 112-224 0-111-38-224-112-224z m-80 224c0-17 1-33 3-48l45 0c18 0 32 22 32 48 0 27-14 48-32 48l-45 0c-2-15-3-31-3-48z m-288 0c0-26 14-48 32-48l112 0c-10 12-16 29-16 48 0 19 6 36 16 48l-112 0c-18 0-32-21-32-48z m160 256l-64 0 0-144c0-12-3-23-9-32l11 0 0 0 49 0c-2 5-3 10-3 16l0 112c0 15 9 26 14 32 0 1 1 1 2 2z m20-208l-4 0 0 0c-18 0-32-21-32-48 0-26 14-48 32-48l4 0c30 0 58-12 83-32-5 25-7 53-7 80 0 27 2 55 7 80-25-20-53-32-83-32z m188 144c-32 0-60-46-73-112l41 0c36 0 64-35 64-80 0-45-28-80-64-80l-41 0c13-66 41-112 73-112 44 0 80 86 80 192 0 106-36 192-80 192z"/>
    </symbol>
  
    <symbol id="icon-menu" viewBox="0 0 512 512">
      <path d="m18 114l476 0c10 0 18-8 18-18l0-46c0-10-8-18-18-18l-476 0c-10 0-18 8-18 18l0 46c0 10 8 18 18 18z m0 183l476 0c10 0 18-8 18-18l0-46c0-10-8-18-18-18l-476 0c-10 0-18 8-18 18l0 46c0 10 8 18 18 18z m0 183l476 0c10 0 18-8 18-18l0-46c0-10-8-18-18-18l-476 0c-10 0-18 8-18 18l0 46c0 10 8 18 18 18z"/>
    </symbol>
  
    <symbol id="icon-minus" viewBox="0 0 512 512">
      <path d="m458 210l0 55c0 15-12 28-27 28l-348 0c-15 0-27-13-27-28l0-55c0-15 12-27 27-27l348 0c15 0 27 12 27 27z"/>
    </symbol>
  
    <symbol id="icon-minus-circle" viewBox="0 0 512 512">
      <path d="m387 274l0-36c0-10-8-19-18-19l-219 0c-10 0-19 9-19 19l0 36c0 10 9 19 19 19l219 0c10 0 18-9 18-19z m92-18c0 121-98 219-220 219-121 0-219-98-219-219 0-121 98-219 219-219 122 0 220 98 220 219z"/>
    </symbol>
  
    <symbol id="icon-mysql" viewBox="0 0 512 512">
      <path d="m350 121c-2 0-4 0-6 1l0 0 0 0c2 2 4 4 5 6 1 2 2 4 3 7l1-1c2-1 3-3 3-7-1-1-1-2-2-3-1-1-3-2-4-3z m-227 282l-20 0c0-34-2-65-5-95l-1 0-30 95-15 0-30-95 0 0c-2 29-3 60-4 95l-18 0c1-42 4-82 9-118l24 0 29 86 0 0 29-86 23 0c5 43 8 82 9 118z m86-87c-8 43-19 75-32 95-10 15-22 23-34 23-3 0-7-1-12-3l0-11c2 0 5 1 8 1 6 0 11-2 14-5 4-4 6-8 6-13 0-3-1-10-4-20l-22-67 19 0 16 50c3 11 5 19 4 24 9-23 15-48 18-74z m263 87l-56 0 0-118 18 0 0 103 38 0z m-71 2l-22-10c2-2 4-4 6-6 9-10 13-26 13-48 0-39-15-58-45-58-16 0-27 5-36 15-9 10-13 26-13 48 0 20 4 36 12 45 7 9 18 13 34 13 5 0 10 0 15-2l28 17 8-14z m-70-26c-5-8-8-20-8-37 0-30 10-45 28-45 9 0 16 4 20 11 5 8 8 20 8 37 0 30-9 45-27 45-10 0-17-4-21-11z m-36-9c0 10-3 18-11 25-7 6-17 9-29 9-12 0-23-4-34-11l5-10c10 5 18 7 26 7 7 0 12-2 16-5 4-3 7-7 7-13 0-7-5-13-14-18-8-4-25-14-25-14-9-6-13-13-13-25 0-10 3-17 10-23 6-6 15-9 26-9 11 0 21 3 30 9l-5 10c-8-3-15-5-23-5-6 0-10 1-14 4-3 3-5 7-5 12 0 7 5 13 14 18 9 4 26 14 26 14 9 7 13 13 13 25z m200-125c-11 0-20 1-27 4-2 1-6 1-6 4 1 1 1 3 2 4 2 3 5 7 8 9 3 2 6 4 9 6 5 4 12 6 17 9 3 2 6 5 9 7 2 1 3 3 5 4l0-1c-1-1-1-3-2-4-2-2-3-3-5-4-4-6-9-11-14-15-5-3-15-7-17-12l0-1c3 0 7-1 10-2 5-1 9-1 14-2 2-1 5-2 7-2l0-2c-3-2-5-6-7-8-7-6-16-12-24-18-4-2-10-4-15-7-1-1-4-1-5-2-3-4-4-8-6-11-4-8-8-17-12-25-2-6-4-11-7-16-15-25-31-39-55-54-5-3-12-4-18-6-4 0-8 0-11 0-2-1-5-4-7-5-8-5-29-16-35-2-4 10 6 19 9 23 3 4 6 7 7 11 1 3 2 5 3 8 2 6 4 13 7 19 2 3 3 6 5 9 2 1 4 2 4 4-2 3-2 8-3 11-5 16-3 36 4 48 2 4 8 11 15 8 6-2 5-10 7-17 0-2 0-3 1-4l0 0c2 4 4 8 6 12 4 7 12 14 18 19 3 2 6 7 10 9l0-1 0 0c-1-1-2-2-3-3-3-2-6-5-8-8-6-8-11-17-16-26-2-5-4-10-6-14-1-2-1-4-2-5-2 3-5 6-7 10-3 6-3 13-4 21 0 0 0 0 0 0-5-1-7-5-8-9-5-11-5-27-2-38 1-3 6-13 4-16-1-2-4-4-5-6-2-3-4-6-5-9-4-8-6-17-9-25-2-4-5-8-7-11-3-4-6-7-8-11-1-2-2-4-1-6 1-1 1-2 2-2 2-1 7 1 9 1 6 3 10 5 14 8 2 1 5 4 7 4l3 0c5 1 10 1 14 2 8 2 14 6 21 10 18 12 34 28 44 49 2 3 3 6 4 9 3 7 7 14 10 21 3 7 6 14 10 19 2 3 11 5 14 6 3 2 8 3 10 4 5 3 10 7 15 10 2 2 9 5 9 8z"/>
    </symbol>
  
    <symbol id="icon-note" viewBox="0 0 512 512">
      <path d="m503 121l-96-96c-6-6-15-9-23-9l-336 0c-26 0-48 22-48 48l0 384c0 26 22 48 48 48l416 0c26 0 48-22 48-48l0-304c0-8-3-17-9-23z m-23 327c0 9-7 16-16 16l-416 0c-9 0-16-7-16-16l0-384c0-9 7-16 16-16l320 0 0 64 0 0c0 27 21 48 48 48l64 0z m-48-304l-16 0c-18 0-32-14-32-32l0 0 0-64 96 96z m-184-16c-4 0-8-4-8-8 0-4 4-8 8-8l80 0c4 0 8 4 8 8 0 4-4 8-8 8z m0 48c-4 0-8-4-8-8 0-4 4-8 8-8l80 0c4 0 8 4 8 8 0 4-4 8-8 8z m-8 40c0-4 4-8 8-8l192 0c4 0 8 4 8 8 0 4-4 8-8 8l-192 0c-4 0-8-4-8-8z m200 88c4 0 8 4 8 8 0 4-4 8-8 8l-368 0c-4 0-8-4-8-8 0-4 4-8 8-8z m0 48c4 0 8 4 8 8 0 4-4 8-8 8l-368 0c-4 0-8-4-8-8 0-4 4-8 8-8z m0 48c4 0 8 4 8 8 0 4-4 8-8 8l-368 0c-4 0-8-4-8-8 0-4 4-8 8-8z m0-144c4 0 8 4 8 8 0 4-4 8-8 8l-368 0c-4 0-8-4-8-8 0-4 4-8 8-8z m-360-32l112 0c9 0 16-7 16-16l0-96c0-9-7-16-16-16l-112 0c-9 0-16 7-16 16l0 96c0 9 7 16 16 16z m16-96l80 0 0 64-80 0z"/>
    </symbol>
  
    <symbol id="icon-params" viewBox="0 0 512 512">
      <path d="m128 96l0-48c0-26-22-48-48-48-26 0-48 22-48 48l0 48c-19 15-32 38-32 64 0 26 13 49 32 64l0 240c0 26 22 48 48 48 26 0 48-22 48-48l0-240c19-15 32-38 32-64 0-26-13-49-32-64z m-64-48c0-9 7-16 16-16 9 0 16 7 16 16l0 34c-5-1-11-2-16-2-5 0-11 1-16 2z m32 416c0 9-7 16-16 16-9 0-16-7-16-16l0-226c5 1 11 2 16 2 5 0 11-1 16-2z m30-291c0 1-1 2-1 3-1 4-3 8-6 12 0 0 0 0 0 0-3 4-6 7-10 10 0 0 0 0 0 0-4 3-8 5-13 7-5 2-10 3-16 3-6 0-11-1-16-3-5-2-9-4-13-7 0 0 0 0 0 0-4-3-7-6-10-10 0 0 0 0 0 0-3-4-5-8-6-12 0-1-1-2-1-3-1-4-2-8-2-13 0-5 1-9 2-13 0-1 1-2 1-3 1-4 3-8 6-12 0 0 0 0 0 0 3-4 6-7 10-10 0 0 0 0 0 0 4-3 8-5 13-7 5-2 10-3 16-3 6 0 11 1 16 3 5 2 9 4 13 7 0 0 0 0 0 0 4 3 7 6 10 10 0 0 0 0 0 0 3 4 5 8 6 12 0 1 1 2 1 3 1 4 2 8 2 13 0 5-1 9-2 13z m354-77l0-48c0-26-22-48-48-48-26 0-48 22-48 48l0 48c-19 15-32 38-32 64 0 26 13 49 32 64l0 240c0 26 22 48 48 48 26 0 48-22 48-48l0-240c19-15 32-38 32-64 0-26-13-49-32-64z m-64-48c0-9 7-16 16-16 9 0 16 7 16 16l0 34c-5-1-11-2-16-2-6 0-11 1-16 2z m32 416c0 9-7 16-16 16-9 0-16-7-16-16l0-226c5 1 10 2 16 2 5 0 11-1 16-2z m30-291c0 1-1 2-1 3-1 4-3 8-6 12 0 0 0 0 0 0-3 4-6 7-10 10 0 0 0 0 0 0-4 3-8 5-13 7-5 2-10 3-16 3-6 0-11-1-16-3-5-2-9-4-13-7 0 0 0 0 0 0-4-3-7-6-10-10 0 0 0 0 0 0-3-4-5-8-6-12 0-1-1-2-1-3-1-4-2-8-2-13 0-5 1-9 2-13 0-1 1-2 1-3 1-4 3-8 6-12 0 0 0 0 0 0 3-4 6-7 10-10 0 0 0 0 0 0 4-3 8-5 13-7 5-2 10-3 16-3 6 0 11 1 16 3 5 2 9 4 13 7 0 0 0 0 0 0 4 3 7 6 10 10 0 0 0 0 0 0 3 4 5 8 6 12 0 1 1 2 1 3 1 4 2 8 2 13 0 5-1 9-2 13z m-174 115l0-240c0-26-22-48-48-48-26 0-48 22-48 48l0 240c-19 15-32 38-32 64 0 26 13 49 32 64l0 48c0 26 22 48 48 48 26 0 48-22 48-48l0-48c19-15 32-38 32-64 0-26-13-49-32-64z m-64-240c0-9 7-16 16-16 9 0 16 7 16 16l0 226c-5-1-11-2-16-2-5 0-11 1-16 2z m32 416c0 9-7 16-16 16-9 0-16-7-16-16l0-34c5 1 11 2 16 2 5 0 11-1 16-2z m30-99c0 1-1 2-1 3-1 4-3 8-6 12 0 0 0 0 0 0-3 4-6 7-10 10 0 0 0 0 0 0-4 3-8 5-13 7-5 2-10 3-16 3-6 0-11-1-16-3-5-2-9-4-13-7 0 0 0 0 0 0-4-3-7-6-10-10 0 0 0 0 0 0-3-4-5-8-6-12 0-1-1-2-1-3-1-4-2-8-2-13 0-5 1-9 2-13 0-1 1-2 1-3 1-4 3-8 6-12 0 0 0 0 0 0 3-4 6-7 10-10 0 0 0 0 0 0 4-3 8-5 13-7 5-2 10-3 16-3 6 0 11 1 16 3 5 2 9 4 13 7 0 0 0 0 0 0 4 3 7 6 10 10 0 0 0 0 0 0 3 4 5 8 6 12 0 1 1 2 1 3 1 4 2 8 2 13 0 5-1 9-2 13z"/>
    </symbol>
  
    <symbol id="icon-pen" viewBox="0 0 512 512">
      <path d="m470 41c-26-26-61-41-95-41-29 0-55 11-75 30l-77 78c-1 1-1 1-1 1 0 0 0 0 0 1l0 0-166 166c-7 8-13 17-16 27l-38 137c0 0-2 11-2 16 0 31 25 56 56 56 6 0 18-3 19-3l135-36c11-3 20-8 28-16l244-246c44-45 39-119-12-170z m-214 340c-1-15-5-29-11-42l151-152c9 30 4 60-16 80 0 1 0 1 0 1l0 0-124 125c0-4 1-8 0-12z m-19-57c-6-10-13-19-21-28-10-9-21-17-33-23l152-153c12 5 24 13 34 23 9 9 15 18 20 28z m-69-59c-15-6-31-9-46-10l123-124c19-18 46-23 74-17z m-101 213c-2 0-7 2-11 2-13 0-24-11-24-24 0-3 1-7 2-9l16-61c19-1 38 7 54 22 16 16 23 36 22 54z m75-20c0-21-9-44-27-61-16-17-38-27-60-27l16-58c1-4 3-8 6-11 32-23 82-16 116 18 36 36 42 89 14 121-2 1-4 2-6 3z m317-270l-27 28c0-4 1-8 0-11-3-31-17-61-40-85-27-26-61-41-95-41l26-26c13-14 32-21 52-21 26 0 52 12 73 32 19 19 30 43 32 67 1 22-6 42-21 57z"/>
    </symbol>
  
    <symbol id="icon-php" viewBox="0 0 512 512">
      <path d="m150 218l-21 0-11 56 18 0c12 0 21-2 27-6 6-5 9-12 12-23 1-10 1-17-3-21-4-4-11-6-22-6z m106-97c-141 0-256 61-256 135 0 74 115 135 256 135 141 0 256-61 256-135 0-74-115-135-256-135z m-70 159c-5 6-12 10-19 12-7 2-16 4-28 4l-25 0-7 35-29 0 26-135 57 0c17 0 29 5 37 14 8 9 10 21 7 37-1 7-4 13-7 19l0-1c-3 6-7 11-12 15z m86 16l12-60c1-7 1-12-2-14-2-3-7-4-14-4l-24 0-15 78-29 0 27-135 29 0-7 35 26 0c16 0 27 3 34 9 6 6 8 15 5 28l-12 63z m162-49c-1 7-3 13-6 19l0-1c-3 6-7 11-12 15-6 5-12 9-19 12l-1 0c-7 2-16 4-27 4l-25 0-7 35-30 0 27-135 56 0c17 0 30 5 37 14 8 9 10 21 7 37z m-55-29l-20 0-11 56 18 0c12 0 20-2 26-6 6-5 10-12 12-23 2-10 1-17-3-21-3-4-11-6-22-6z"/>
    </symbol>
  
    <symbol id="icon-plus" viewBox="0 0 512 512">
      <path d="m458 210l0 55c0 15-12 28-27 28l-119 0 0 118c0 16-12 28-27 28l-55 0c-15 0-28-12-28-28l0-118-119 0c-15 0-27-13-27-28l0-55c0-15 12-27 27-27l119 0 0-119c0-15 13-27 28-27l55 0c15 0 27 12 27 27l0 119 119 0c15 0 27 12 27 27z"/>
    </symbol>
  
    <symbol id="icon-plus-circle" viewBox="0 0 512 512">
      <path d="m387 274l0-36c0-10-8-19-18-19l-73 0 0-73c0-10-8-18-18-18l-37 0c-10 0-18 8-18 18l0 73-73 0c-10 0-19 9-19 19l0 36c0 10 9 19 19 19l73 0 0 73c0 10 8 18 18 18l37 0c10 0 18-8 18-18l0-73 73 0c10 0 18-9 18-19z m92-18c0 121-98 219-220 219-121 0-219-98-219-219 0-121 98-219 219-219 122 0 220 98 220 219z"/>
    </symbol>
  
    <symbol id="icon-search" viewBox="0 0 512 512">
      <path d="m320 0c-106 0-192 86-192 192 0 32 8 63 22 90l-133 133 0 0c-11 11-17 25-17 41 0 31 25 56 56 56 16 0 30-6 41-17l0 0 133-133c27 14 58 22 90 22 106 0 192-86 192-192 0-106-86-192-192-192z m-243 475c-5 5-13 9-21 9-15 0-28-13-28-28 0-8 4-15 9-21l0 0 129-129c11 15 25 29 40 40z m243-123c-88 0-160-72-160-160 0-88 72-160 160-160 88 0 160 72 160 160 0 88-72 160-160 160z m0-272c4 0 8 4 8 8 0 4-4 8-8 8-53 0-96 43-96 96 0 4-4 8-8 8-4 0-8-4-8-8 0-62 50-112 112-112z"/>
    </symbol>
  
    <symbol id="icon-settings" viewBox="0 0 512 512">
      <path d="m486 203l-49-10c-2-7-5-14-8-21l27-41c9-13 7-30-4-41l-30-30c-7-7-15-10-23-10-6 0-12 2-18 6l-41 27c-7-3-14-6-21-8l-10-49c-3-15-16-26-31-26l-44 0c-15 0-28 11-31 26l-10 49c-7 2-14 5-21 8l-41-27c-6-4-12-6-18-6-8 0-16 3-23 10l-30 30c-11 11-13 28-4 41l27 41c-3 7-6 14-8 21l-49 10c-15 3-26 16-26 31l0 44c0 15 11 28 26 31l49 10c2 7 5 14 8 21l-27 41c-9 13-7 30 4 41l30 30c7 7 15 10 23 10 6 0 12-2 18-6l41-27c7 3 14 6 21 8l10 49c3 15 16 26 31 26l44 0c15 0 28-11 31-26l10-49c7-2 14-5 21-8l41 27c6 4 12 6 18 6 8 0 16-3 23-10l30-30c11-11 13-28 4-41l-27-41c3-7 6-14 8-21l49-10c15-3 26-16 26-31l0-44c0-15-11-28-26-31z m-55 85c-11 2-20 10-24 20-2 6-4 12-7 18-5 10-4 22 2 31l28 42-31 31-42-28c-5-4-11-5-17-5-5 0-10 1-14 3-6 3-12 5-18 7-10 4-18 13-20 24l-10 49-44 0-10-49c-2-11-10-20-20-24-6-2-12-4-18-7-4-2-9-3-14-3-6 0-12 1-17 5l-42 28-31-31 28-42c6-9 7-21 2-31-3-6-5-12-7-18-4-10-13-18-24-20l-49-10 0-44 49-10c11-2 20-10 24-20 2-6 4-12 7-18 5-10 4-22-2-31l-28-42 31-31 42 28c5 4 11 5 17 5 5 0 10-1 14-3 6-2 12-5 18-7 10-4 18-13 20-24l10-49 44 0 10 49c2 11 10 20 20 24 6 2 12 4 18 7 4 2 9 3 14 3 6 0 12-1 17-5l42-28 31 31-28 42c-6 9-7 21-2 31 2 6 5 12 7 18 4 10 13 18 24 20l49 10 0 44z m-175-144c-62 0-112 50-112 112 0 62 50 112 112 112 62 0 112-50 112-112 0-62-50-112-112-112z m0 210c-54 0-98-44-98-98 0-54 44-98 98-98 54 0 98 44 98 98 0 54-44 98-98 98z m0-162c-35 0-64 29-64 64 0 35 29 64 64 64 35 0 64-29 64-64 0-35-29-64-64-64z m0 112c-26 0-48-21-48-48 0-26 22-48 48-48 26 0 48 22 48 48 0 27-22 48-48 48z"/>
    </symbol>
  
    <symbol id="icon-stack" viewBox="0 0 512 512">
      <path d="m511 295l-64-240c-4-13-17-23-31-23l-320 0c-14 0-27 10-31 23l-64 240c-1 3-1 6-1 9l0 112c0 35 29 64 64 64l384 0c35 0 64-29 64-64l0-112c0-3 0-6-1-9z m-31 121c0 18-14 32-32 32l-384 0c-18 0-32-14-32-32l0-112 64-240 320 0 64 240z m-100-320l-248 0c-7 0-13 5-15 12l-55 192c-2 5-1 10 2 14 3 4 8 6 13 6l73 0 23 46c6 11 17 18 29 18l108 0c12 0 23-7 29-18l23-46 73 0c5 0 10-2 13-6 3-4 4-9 2-14l-55-192c-2-7-8-12-15-12z m8 192l-26 0c-12 0-23 7-29 18l-23 46-108 0-23-46c-6-11-17-18-29-18l-65 0 47-176 248 0 47 176z"/>
    </symbol>
  
    <symbol id="icon-star" viewBox="0 0 512 512">
      <path d="m510 201c-4-13-16-22-29-24l-134-20-58-120c-6-13-19-21-33-21-14 0-27 8-33 21l-58 120-134 20c-13 2-25 11-29 24-4 13-1 27 9 36l97 98-22 135c-3 14 3 27 15 35 6 5 13 7 21 7 6 0 12-2 18-4l116-63 116 63c6 2 12 4 18 4 8 0 15-2 21-7 12-8 18-21 15-35l-22-135 98-98c9-9 12-23 8-36z m-133 109c-8 8-11 19-10 31l23 135-116-63c-6-3-12-4-18-4-6 0-12 1-18 4l-116 63 23-135c1-12-2-23-10-31l-98-98 133-20c12-1 23-9 28-20l58-120 58 120c5 11 16 19 28 21l133 19z"/>
    </symbol>
  
    <symbol id="icon-study" viewBox="0 0 512 512">
      <path d="m512 128c0-22-15-42-37-47l-208-48c-4-1-7-1-11-1-4 0-7 0-11 1l-208 48c-22 5-37 25-37 47 0 22 15 42 37 47l43 10 0 135c0 42 49 80 176 80 127 0 176-38 176-80l0-135 43-10c22-5 37-25 37-47z m-112 192c0 18-48 48-144 48-96 0-144-30-144-48l0-128 133 31c4 1 7 1 11 1 4 0 7 0 11-1l133-31z m-140-128c-2 0-3 0-4 0-1 0-2 0-4 0l-208-48c-7-2-12-9-12-16 0-7 5-14 12-16l208-48c2 0 3 0 4 0 1 0 2 0 4 0l208 48c7 2 12 9 12 16 0 7-5 14-12 16z m204 16c0-9 7-16 16-16 9 0 16 7 16 16l0 144c0 9-7 16-16 16-9 0-16-7-16-16z m16 176c18 0 32 46 32 64 0 18-14 32-32 32-18 0-32-14-32-32 0-18 14-64 32-64z"/>
    </symbol>
  
    <symbol id="icon-trash" viewBox="0 0 512 512">
      <path d="m202 210l0 165c0 5-4 9-9 9l-18 0c-5 0-9-4-9-9l0-165c0-5 4-9 9-9l18 0c5 0 9 4 9 9z m73 0l0 165c0 5-4 9-9 9l-18 0c-5 0-9-4-9-9l0-165c0-5 4-9 9-9l18 0c5 0 9 4 9 9z m74 0l0 165c0 5-4 9-10 9l-18 0c-5 0-9-4-9-9l0-165c0-5 4-9 9-9l18 0c6 0 10 4 10 9z m36 207l0-271-256 0 0 271c0 14 8 22 9 22l238 0c1 0 9-8 9-22z m-192-307l128 0-14-34c0-1-3-3-4-3l-91 0c-2 0-4 2-5 3z m265 9l0 18c0 5-4 9-9 9l-27 0 0 271c0 32-21 58-46 58l-238 0c-25 0-45-25-45-57l0-272-28 0c-5 0-9-4-9-9l0-18c0-5 4-9 9-9l88 0 20-48c6-14 23-25 38-25l92 0c15 0 32 11 38 25l20 48 88 0c5 0 9 4 9 9z"/>
    </symbol>
  
    <symbol id="icon-truck" viewBox="0 0 512 512">
      <path d="m397 183c-3-4-8-7-13-7l-16 0c-9 0-16 7-16 16l0 96c0 9 7 16 16 16l64 0c9 0 16-7 16-16l0-24c0-3-1-6-3-9z m35 105l-64 0 0-96 16 0 48 72z m72-43l-64-96c-9-13-24-21-40-21l-64 0 0-32c0-26-22-48-48-48l-240 0c-26 0-48 22-48 48l0 176c0 26 22 48 48 48l0 48c0 26 22 48 48 48l18 0c7 28 32 48 62 48 30 0 55-20 62-48l84 0c7 28 32 48 62 48 30 0 55-20 62-48l18 0c26 0 48-22 48-48l0-96c0-10-3-19-8-27z m-456 43c-9 0-16-7-16-16l0-176c0-9 7-16 16-16l240 0c9 0 16 7 16 16l0 176c0 9-7 16-16 16z m128 144c-18 0-32-14-32-32 0-18 14-32 32-32 18 0 32 14 32 32 0 18-14 32-32 32z m208 0c-18 0-32-14-32-32 0-18 14-32 32-32 18 0 32 14 32 32 0 18-14 32-32 32z m96-64c0 9-7 16-16 16l-18 0c-7-28-32-48-62-48-30 0-55 20-62 48l-84 0c-7-28-32-48-62-48-30 0-55 20-62 48l-18 0c-9 0-16-7-16-16l0-48 208 0c26 0 48-22 48-48l0-112 64 0c5 0 10 3 13 7l64 96c2 3 3 6 3 9z"/>
    </symbol>
  
    <symbol id="icon-user" viewBox="0 0 512 512">
      <path d="m435 383c-7-54-29-101-78-108-25 28-61 45-101 45-40 0-76-17-101-45-49 7-71 54-78 108 40 56 105 92 179 92 74 0 139-36 179-92z m-69-200c0-61-49-110-110-110-61 0-110 49-110 110 0 60 49 110 110 110 61 0 110-50 110-110z m146 73c0 141-114 256-256 256-141 0-256-115-256-256 0-141 115-256 256-256 141 0 256 115 256 256z"/>
    </symbol>
  
    <symbol id="icon-user-o" viewBox="0 0 512 512">
      <path d="m256 0c141 0 256 115 256 256 0 141-114 256-256 256-142 0-256-115-256-256 0-141 115-256 256-256z m177 386c26-37 42-81 42-130 0-121-98-219-219-219-121 0-219 98-219 219 0 49 16 93 42 130 10-51 35-93 88-93 23 22 54 36 89 36 35 0 66-14 89-36 53 0 78 42 88 93z m-67-185c0-60-49-110-110-110-61 0-110 50-110 110 0 61 49 110 110 110 61 0 110-49 110-110z"/>
    </symbol>
  
    <symbol id="icon-vue" viewBox="0 0 512 512">
      <path d="m410 34l0 0-95 0-59 103-59-103-95 0 0 0-102 0 256 444 256-444z"/>
    </symbol>
  
    <symbol id="icon-wallet" viewBox="0 0 512 512">
      <path d="m256 320c0-18 14-32 32-32 18 0 32 14 32 32 0 18-14 32-32 32-18 0-32-14-32-32z m208-112c0 0 0 0 0 0l0-96 0-48c0-27-22-48-48-48l-328 0c-49 0-88 39-88 88l0 320c0 49 39 88 88 88l288 0c49 0 88-39 88-88l0-24c0 0 0 0 0 0 64-48 64-144 0-192z m-376-160l328 0c9 0 16 7 16 16l0 99c-5-2-10-3-16-3l0 0 0-80c0-9-7-16-16-16l-336 0c-9 0-16 7-16 16l0 63c-10-10-16-24-16-39 0-31 25-56 56-56z m312 48l-336 0 0-16 336 0z m0 16l0 16-336 0 0-16z m0 32l0 16-312 0c-9 0-17-2-24-6l0-10z m32 280c0 31-25 56-56 56l-288 0c-31 0-56-25-56-56l0-252c15 12 35 20 56 20l328 0c9 0 16 7 16 16l0 32-144 0c-44 0-80 36-80 80 0 44 36 80 80 80l144 0z m20-56l-164 0c-26 0-48-22-48-48 0-26 22-48 48-48l144 0c10 0 20-5 26-13 1-2 3-5 4-7 0-1 0-1 0-1 12 15 18 33 18 53 0 25-10 47-28 64z"/>
    </symbol>
  
    <symbol id="icon-chevron-up" viewBox="0 0 512 512">
      <path d="m481 380l-48 47c-7 8-18 8-25 0l-152-151-152 151c-7 8-18 8-25 0l-48-47c-7-7-7-19 0-26l212-211c7-8 19-8 26 0l212 211c7 7 7 19 0 26z"/>
    </symbol>
  
    <symbol id="icon-clip" viewBox="0 0 512 512">
      <path d="m470 74c56 56 56 148 0 204l-176 175c-6 7-16 7-22 0-7-6-7-16 0-22l173-174c44-43 44-114 0-158-44-44-115-44-158 0l-232 229c-31 31-31 81 0 113 32 31 82 31 113 0l234-231c19-19 19-49 0-68-19-19-49-19-68 0l-175 176c-7 6-17 6-23 0-6-7-6-17 0-23l175-176c32-31 82-31 114 0 31 32 31 82 0 114l-234 230c-44 44-115 44-158 0-44-43-44-114 0-158l233-231c56-56 148-56 204 0z"/>
    </symbol>
  
    <symbol id="icon-facebook" viewBox="0 0 512 512">
      <path d="m464 0l-416 0c-26 0-48 22-48 48l0 416c0 26 22 48 48 48l208 0 0-224-64 0 0-64 64 0 0-32c0-53 43-96 96-96l64 0 0 64-64 0c-18 0-32 14-32 32l0 32 96 0-16 64-80 0 0 224 144 0c26 0 48-22 48-48l0-416c0-26-22-48-48-48z"/>
    </symbol>
  
    <symbol id="icon-fire" viewBox="0 0 512 512">
      <path d="m352 144c-1 43-33 79-33 79 0-80-63-143-63-143 0 0-1 47-33 95-32-111-127-175-127-175 48 175-16 239-16 366 0 75 63 146 160 146 143 0 171-53 186-112 20-82-10-176-74-256z m43 248c-10 41-22 88-155 88-80 0-128-58-128-114 0-43 8-78 16-115 11-47 21-95 17-159 49 68 67 159 67 159 0 0 46-65 58-95 9 19 18 84 18 148 0 0 42-35 74-88 34 61 46 123 33 176z m-36-123l3 16c7 37 3 81-10 112-1 3-4 5-7 5-1 0-2 0-3-1-4-1-6-6-4-10 9-23 13-56 10-86-16 18-36 37-79 58l-8 3-3-8c-6-17-12-34-14-57-9 13-17 25-30 43l-8 11-6-12c-14-31-24-55-33-76-7 25-13 53-13 111 0 4-4 8-8 8-4 0-8-4-8-8 0-75 10-104 21-135l8-24 8 21c8 24 19 49 34 84 10-15 17-25 25-38l24-38 0 27c0 31 6 51 12 69 43-21 58-40 75-60z"/>
    </symbol>
  
    <symbol id="icon-location" viewBox="0 0 512 512">
      <path d="m256 284c53 0 96-43 96-96 0-53-43-96-96-96-53 0-96 43-96 96 0 53 43 96 96 96z m0-176c44 0 80 36 80 80 0 44-36 80-80 80-44 0-80-36-80-80 0-44 36-80 80-80z m0-108c-106 0-192 85-192 192 0 112 96 227 166 307 0 0 12 13 25 13 0 0 2 0 2 0 13 0 25-13 25-13 70-80 166-195 166-307 0-107-86-192-192-192z m2 478c0 0-1 1-2 2 0-1-2-2-2-2-59-68-158-182-158-286 0-88 72-160 160-160 88 0 160 72 160 160 0 104-99 218-158 286z"/>
    </symbol>
  
    <symbol id="icon-lock" viewBox="0 0 512 512">
      <path d="m400 208l0-64c0-80-64-144-144-144-80 0-144 64-144 144l0 64c-27 0-48 21-48 48l0 112c0 80 64 144 144 144l96 0c80 0 144-64 144-144l0-112c0-27-22-48-48-48z m-256-64c0-62 50-112 112-112 62 0 112 50 112 112l0 64-32 0 0-64c0-44-36-80-80-80-44 0-80 36-80 80l0 64-32 0z m176 0l0 64-128 0 0-64c0-35 29-64 64-64 35 0 64 29 64 64z m96 160l0 64c0 62-50 112-112 112l-96 0c-62 0-112-50-112-112l0-112c0-9 7-16 16-16 11 0 21 0 32 0l224 0c11 0 21 0 32 0 9 0 16 7 16 16z m-160 0c18 0 32 14 32 32 0 10-5 28-11 43-4 12-8 21-21 21-12 0-17-9-21-21-6-15-11-33-11-43 0-18 14-32 32-32z"/>
    </symbol>
  
    <symbol id="icon-rocket" viewBox="0 0 512 512">
      <path d="m352 32l-160 160-96 0-96 128c0 0 102-28 161-15l-161 207 211-164c29 67-19 164-19 164l128-96 0-96 160-160 32-160z"/>
    </symbol>
  
    <symbol id="icon-sass" viewBox="0 0 512 512">
      <path d="m256 0c141 0 256 115 256 256 0 141-115 256-256 256-141 0-256-115-256-256 0-141 115-256 256-256z m-51 341c4 14 3 27 0 39l-2 3c0 2-1 3-1 4-3 6-7 12-12 17-15 17-36 23-45 18-9-6-5-29 13-47 18-20 45-32 45-32l0 0z m212-231c-12-46-87-61-159-36-42 16-88 39-121 70-40 37-46 69-43 82 9 47 74 78 100 101l0 0c-8 4-65 33-79 63-14 31 3 54 14 56 33 10 68-7 86-35 18-27 17-61 9-78 11-3 23-4 39-2 45 5 54 33 52 44-2 12-11 19-15 20-3 2-4 3-3 4 0 2 2 2 4 2 4-1 23-10 24-31 1-28-25-59-72-58-19 0-31 2-40 5 0-1-1-1-2-2-29-31-82-53-80-94 1-15 6-55 103-103 79-39 142-28 153-4 15 34-34 98-116 107-32 4-48-9-52-13-5-5-5-5-7-4-2 1-1 5 0 8 3 6 13 17 30 23 15 5 52 8 96-9 49-20 88-73 77-118l2 2z"/>
    </symbol>
  
</svg>
